<?xml version="1.0" encoding="UTF-8" standalone="no"?>
<!DOCTYPE svg PUBLIC "-//W3C//DTD SVG 1.1//EN" "http://www.w3.org/Graphics/SVG/1.1/DTD/svg11.dtd">
<svg width="100%" height="100%" viewBox="0 0 256 256" version="1.1" xmlns="http://www.w3.org/2000/svg" xmlns:xlink="http://www.w3.org/1999/xlink" xml:space="preserve" xmlns:serif="http://www.serif.com/" style="fill-rule:evenodd;clip-rule:evenodd;">
    <g id="Document">
        <path d="M56,24L168,24L200,56L200,224C200,229.333 197.333,232 192,232L64,232C58.667,232 56,229.333 56,224L56,24Z" style="fill:url(#_Linear1);fill-rule:nonzero;"/>
        <path d="M56,24L168,24L200,56L200,224C200,229.333 197.333,232 192,232L64,232C58.667,232 56,229.333 56,224L56,24Z" style="fill:none;fill-rule:nonzero;stroke:rgb(216,216,216);stroke-width:0.75px;"/>
        <path d="M168,24L168,48C168,53.333 170.667,56 176,56L200,56L168,24Z" style="fill:url(#_Linear2);fill-rule:nonzero;"/>
        <path d="M168,24L168,48C168,53.333 170.667,56 176,56L200,56" style="fill:none;fill-rule:nonzero;stroke:rgb(200,200,200);stroke-width:0.5px;"/>
    </g>
    <g id="Film-Strip-Icon" serif:id="Film Strip Icon" transform="matrix(1.144231,0,0,1.203125,-17.961538,-3.625)">
        <path d="M180,76.987L180,131.013C180,133.765 177.65,136 174.756,136L81.244,136C78.35,136 76,133.765 76,131.013L76,76.987C76,74.235 78.35,72 81.244,72L174.756,72C177.65,72 180,74.235 180,76.987Z" style="fill:url(#_Linear3);"/>
        <path d="M86,77.831L86,80.169C86,80.628 85.608,81 85.126,81L80.874,81C80.392,81 80,80.628 80,80.169L80,77.831C80,77.372 80.392,77 80.874,77L85.126,77C85.608,77 86,77.372 86,77.831Z" style="fill:white;fill-opacity:0.35;"/>
        <path d="M86,85.831L86,88.169C86,88.628 85.608,89 85.126,89L80.874,89C80.392,89 80,88.628 80,88.169L80,85.831C80,85.372 80.392,85 80.874,85L85.126,85C85.608,85 86,85.372 86,85.831Z" style="fill:white;fill-opacity:0.35;"/>
        <path d="M86,93.831L86,96.169C86,96.628 85.608,97 85.126,97L80.874,97C80.392,97 80,96.628 80,96.169L80,93.831C80,93.372 80.392,93 80.874,93L85.126,93C85.608,93 86,93.372 86,93.831Z" style="fill:white;fill-opacity:0.35;"/>
        <path d="M86,101.831L86,104.169C86,104.628 85.608,105 85.126,105L80.874,105C80.392,105 80,104.628 80,104.169L80,101.831C80,101.372 80.392,101 80.874,101L85.126,101C85.608,101 86,101.372 86,101.831Z" style="fill:white;fill-opacity:0.35;"/>
        <path d="M86,109.831L86,112.169C86,112.628 85.608,113 85.126,113L80.874,113C80.392,113 80,112.628 80,112.169L80,109.831C80,109.372 80.392,109 80.874,109L85.126,109C85.608,109 86,109.372 86,109.831Z" style="fill:white;fill-opacity:0.35;"/>
        <path d="M86,117.831L86,120.169C86,120.628 85.608,121 85.126,121L80.874,121C80.392,121 80,120.628 80,120.169L80,117.831C80,117.372 80.392,117 80.874,117L85.126,117C85.608,117 86,117.372 86,117.831Z" style="fill:white;fill-opacity:0.35;"/>
        <path d="M86,125.831L86,128.169C86,128.628 85.608,129 85.126,129L80.874,129C80.392,129 80,128.628 80,128.169L80,125.831C80,125.372 80.392,125 80.874,125L85.126,125C85.608,125 86,125.372 86,125.831Z" style="fill:white;fill-opacity:0.35;"/>
        <path d="M176,77.831L176,80.169C176,80.628 175.608,81 175.126,81L170.874,81C170.392,81 170,80.628 170,80.169L170,77.831C170,77.372 170.392,77 170.874,77L175.126,77C175.608,77 176,77.372 176,77.831Z" style="fill:white;fill-opacity:0.35;"/>
        <path d="M176,85.831L176,88.169C176,88.628 175.608,89 175.126,89L170.874,89C170.392,89 170,88.628 170,88.169L170,85.831C170,85.372 170.392,85 170.874,85L175.126,85C175.608,85 176,85.372 176,85.831Z" style="fill:white;fill-opacity:0.35;"/>
        <path d="M176,93.831L176,96.169C176,96.628 175.608,97 175.126,97L170.874,97C170.392,97 170,96.628 170,96.169L170,93.831C170,93.372 170.392,93 170.874,93L175.126,93C175.608,93 176,93.372 176,93.831Z" style="fill:white;fill-opacity:0.35;"/>
        <path d="M176,101.831L176,104.169C176,104.628 175.608,105 175.126,105L170.874,105C170.392,105 170,104.628 170,104.169L170,101.831C170,101.372 170.392,101 170.874,101L175.126,101C175.608,101 176,101.372 176,101.831Z" style="fill:white;fill-opacity:0.35;"/>
        <path d="M176,109.831L176,112.169C176,112.628 175.608,113 175.126,113L170.874,113C170.392,113 170,112.628 170,112.169L170,109.831C170,109.372 170.392,109 170.874,109L175.126,109C175.608,109 176,109.372 176,109.831Z" style="fill:white;fill-opacity:0.35;"/>
        <path d="M176,117.831L176,120.169C176,120.628 175.608,121 175.126,121L170.874,121C170.392,121 170,120.628 170,120.169L170,117.831C170,117.372 170.392,117 170.874,117L175.126,117C175.608,117 176,117.372 176,117.831Z" style="fill:white;fill-opacity:0.35;"/>
        <path d="M176,125.831L176,128.169C176,128.628 175.608,129 175.126,129L170.874,129C170.392,129 170,128.628 170,128.169L170,125.831C170,125.372 170.392,125 170.874,125L175.126,125C175.608,125 176,125.372 176,125.831Z" style="fill:white;fill-opacity:0.35;"/>
    </g>
    <g id="CCTV-Camera---Icon-by-Vectors-Market-from-the-Noun-Project-CC-BY-3.0" serif:id="CCTV Camera - Icon by Vectors Market from the Noun Project CC-BY-3.0" transform="matrix(1.144231,0,0,1.203125,99.894231,91.421875)">
        <path d="M49,12.4C49.1,9.3 48.7,8.3 48.7,7.9C47.8,5.9 44.9,4.3 43.1,3.8C43,4.3 43.5,5.9 42,5.8C41.4,5.7 40.9,5.2 40.9,4.6L40.9,3.2C32,0.8 18.4,0.7 9.1,3.2L9.1,4.6C9.1,5.2 8.6,5.7 8,5.8C7.3,6 7,5.5 7,5.1L7,3.9C5.1,4.4 2.3,6 1.3,8C1.3,8.2 0.9,9.3 1,12.3C9,4.8 41.3,4.8 49,12.4Z" style="fill:white;fill-rule:nonzero;"/>
        <path d="M1.1,13.7C1.3,15.8 1.6,17.2 2.3,19.9C9.7,14.3 40.6,14.5 47.7,20C48.3,17.4 48.7,15.9 48.9,14C43.2,5.8 7.3,5.8 1.1,13.7Z" style="fill:white;fill-rule:nonzero;"/>
        <path d="M25.8,33.6C25.8,33.9 25.5,34.2 25.2,34.2C24.9,34.2 24.6,33.9 24.6,33.6C24.6,33.3 24.9,33 25.2,33L25.4,33C25.3,33 25.2,33.1 25.2,33.3C25.2,33.5 25.3,33.6 25.5,33.6C25.6,33.6 25.7,33.5 25.8,33.4L25.8,33.6Z" style="fill:white;fill-rule:nonzero;"/>
        <path d="M25.2,31.6C23.8,31.6 22.7,32.7 22.7,34C22.7,35.3 23.8,36.4 25.2,36.4C26.6,36.4 27.7,35.3 27.7,34C27.8,32.7 26.6,31.6 25.2,31.6ZM25.2,34.8C24.5,34.8 23.9,34.2 23.9,33.6C23.9,32.9 24.5,32.4 25.2,32.4C25.9,32.4 26.5,32.9 26.5,33.6C26.5,34.2 25.9,34.8 25.2,34.8Z" style="fill:white;fill-rule:nonzero;"/>
        <path d="M25.2,28C21.4,28 18.4,30.9 18.4,34.6C18.4,38.2 21.5,41.1 25.2,41.1C29,41.1 32,38.2 32,34.6C32,30.9 29,28 25.2,28ZM25.2,37.4C23.3,37.4 21.8,35.9 21.8,34.1C21.8,32.3 23.3,30.8 25.2,30.8C27.1,30.8 28.7,32.3 28.7,34.1C28.7,35.9 27.1,37.4 25.2,37.4Z" style="fill:white;fill-rule:nonzero;"/>
        <path d="M2.6,21.2C4.8,29.9 5.6,34.2 8,35.7C8,35.7 11.1,48.2 25,48.6C38.9,48.2 42,35.7 42,35.7C44.4,34.3 45,30.6 47.4,21.2C41.6,15.5 8.5,15.4 2.6,21.2ZM17.1,41.2C15.6,39.4 14.7,37.2 14.7,34.8C14.7,24.2 29.9,20.6 34.8,30.5C39.9,40.7 25.6,50.6 17.1,41.2Z" style="fill:white;fill-rule:nonzero;"/>
    </g>
    <g id="UBV-Text" serif:id="UBV Text" transform="matrix(1.692308,0,0,1.692308,-44.615385,-145.692308)">
        <path d="M128,198.364L128,215.636C128,216.941 126.941,218 125.636,218L78.364,218C77.059,218 76,216.941 76,215.636L76,198.364C76,197.059 77.059,196 78.364,196L125.636,196C126.941,196 128,197.059 128,198.364Z" style="fill:url(#_Linear4);"/>
        <g transform="matrix(1,0,0,1,101.9675,212)">
            <text x="-12.383px" y="0px" style="font-family:'Helvetica';font-size:13px;fill:white;">.u<tspan x="-1.412px " y="0px ">b</tspan>v</text>
        </g>
    </g>
    <defs>
        <linearGradient id="_Linear1" x1="0" y1="0" x2="1" y2="0" gradientUnits="userSpaceOnUse" gradientTransform="matrix(0,208,-208,0,56,24)"><stop offset="0" style="stop-color:white;stop-opacity:1"/><stop offset="1" style="stop-color:rgb(245,245,245);stop-opacity:1"/></linearGradient>
        <linearGradient id="_Linear2" x1="0" y1="0" x2="1" y2="0" gradientUnits="userSpaceOnUse" gradientTransform="matrix(32,32,-32,32,168,24)"><stop offset="0" style="stop-color:rgb(224,224,224);stop-opacity:1"/><stop offset="1" style="stop-color:rgb(208,208,208);stop-opacity:1"/></linearGradient>
        <linearGradient id="_Linear3" x1="0" y1="0" x2="1" y2="0" gradientUnits="userSpaceOnUse" gradientTransform="matrix(0,64,-64,0,76,72)"><stop offset="0" style="stop-color:rgb(91,141,239);stop-opacity:1"/><stop offset="1" style="stop-color:rgb(58,109,217);stop-opacity:1"/></linearGradient>
        <linearGradient id="_Linear4" x1="0" y1="0" x2="1" y2="0" gradientUnits="userSpaceOnUse" gradientTransform="matrix(0,22,-22,0,76,196)"><stop offset="0" style="stop-color:rgb(91,141,239);stop-opacity:1"/><stop offset="1" style="stop-color:rgb(58,109,217);stop-opacity:1"/></linearGradient>
    </defs>
</svg>
